<svg width="198" height="36" viewBox="0 0 198 36" fill="none" xmlns="http://www.w3.org/2000/svg">
<path fill-rule="evenodd" clip-rule="evenodd" d="M106.545 26.2867C105.474 26.2867 104.543 26.0229 103.752 25.4954C102.961 24.9679 102.348 24.2154 101.914 23.2379C101.495 22.245 101.285 21.0736 101.285 19.7237C101.285 17.5982 101.758 15.9691 102.705 14.8365C103.667 13.6883 104.947 13.1143 106.545 13.1143C107.926 13.1143 109.019 13.6806 109.826 14.8132V9.18115H112.805V25.9376H109.826V24.527C109.565 24.9069 109.263 25.2297 108.919 25.4954C108.251 26.0229 107.46 26.2867 106.545 26.2867ZM109.105 22.7725C109.586 22.0743 109.826 21.0581 109.826 19.7237C109.826 18.3894 109.586 17.3654 109.105 16.6517C108.624 15.938 107.949 15.5812 107.08 15.5812C106.196 15.5812 105.521 15.938 105.055 16.6517C104.59 17.3499 104.357 18.3739 104.357 19.7237C104.357 21.027 104.59 22.0355 105.055 22.7492C105.536 23.4629 106.211 23.8198 107.08 23.8198C107.964 23.8198 108.639 23.4707 109.105 22.7725ZM117.946 17.5594H114.944C115.084 16.6285 115.386 15.8372 115.852 15.1855C116.333 14.5184 116.961 14.0064 117.737 13.6495C118.528 13.2927 119.451 13.1143 120.507 13.1143C121.655 13.1143 122.617 13.3237 123.392 13.7426C124.184 14.1615 124.773 14.7434 125.161 15.4881C125.549 16.2328 125.743 17.0862 125.743 18.0481V22.8888C125.743 23.6491 125.774 24.2697 125.836 24.7507C125.914 25.2161 126.007 25.6118 126.115 25.9376H123.02C122.896 25.6273 122.818 25.2394 122.787 24.7739C122.776 24.5977 122.767 24.4214 122.759 24.2452C122.559 24.5296 122.335 24.7834 122.089 25.0067C121.608 25.4411 121.073 25.7592 120.483 25.9609C119.894 26.1781 119.304 26.2867 118.715 26.2867C117.892 26.2867 117.163 26.1548 116.527 25.891C115.906 25.6118 115.418 25.2084 115.061 24.6809C114.704 24.1378 114.525 23.4707 114.525 22.6794C114.525 21.8261 114.758 21.0968 115.224 20.4917C115.705 19.8711 116.426 19.3979 117.388 19.0721C118.257 18.7618 119.141 18.5679 120.041 18.4903C120.85 18.408 121.75 18.3621 122.741 18.3525V18.0481C122.741 17.2413 122.539 16.6285 122.136 16.2095C121.748 15.7906 121.143 15.5812 120.32 15.5812C119.607 15.5812 119.056 15.7674 118.668 16.1397C118.28 16.4966 118.04 16.9698 117.946 17.5594ZM122.741 20.1918V20.7245C122.741 21.3451 122.593 21.9114 122.299 22.4234C122.019 22.9354 121.631 23.3388 121.135 23.6336C120.638 23.9284 120.088 24.0758 119.482 24.0758C118.893 24.0758 118.42 23.9361 118.063 23.6569C117.706 23.3776 117.528 22.9975 117.528 22.5165C117.528 22.1907 117.605 21.8881 117.76 21.6088C117.931 21.3296 118.218 21.0813 118.621 20.8641C119.025 20.6469 119.591 20.484 120.32 20.3754C120.964 20.2658 121.771 20.2046 122.741 20.1918ZM90.998 25.4954C91.8979 26.0229 92.9684 26.2867 94.2096 26.2867C95.4198 26.2867 96.4671 26.0307 97.3515 25.5187C98.2514 25.0067 98.9418 24.2619 99.4227 23.2845C99.9192 22.307 100.167 21.1201 100.167 19.7237C100.167 18.3584 99.927 17.187 99.446 16.2095C98.9651 15.2166 98.2746 14.4563 97.3747 13.9288C96.4904 13.3858 95.4353 13.1143 94.2096 13.1143C92.9995 13.1143 91.9444 13.3703 91.0445 13.8823C90.1446 14.3943 89.4465 15.1468 88.95 16.1397C88.469 17.1172 88.2285 18.3119 88.2285 19.7237C88.2285 21.0736 88.469 22.245 88.95 23.2379C89.4309 24.2154 90.1136 24.9679 90.998 25.4954ZM96.3507 22.7725C95.8542 23.4707 95.1405 23.8198 94.2096 23.8198C93.2632 23.8198 92.5417 23.4629 92.0453 22.7492C91.5488 22.0355 91.3005 21.027 91.3005 19.7237C91.3005 18.3739 91.5488 17.3499 92.0453 16.6517C92.5417 15.938 93.2632 15.5812 94.2096 15.5812C95.1405 15.5812 95.8542 15.938 96.3507 16.6517C96.8472 17.3654 97.0955 18.3894 97.0955 19.7237C97.0955 21.0425 96.8472 22.0588 96.3507 22.7725ZM87.1197 17.8852H84.1408C84.0011 17.0784 83.6986 16.4966 83.2331 16.1397C82.7832 15.7674 82.2479 15.5812 81.6273 15.5812C80.6964 15.5812 79.9904 15.938 79.5095 16.6517C79.044 17.3499 78.8113 18.3739 78.8113 19.7237C78.8113 21.0425 79.0595 22.0588 79.556 22.7725C80.0525 23.4707 80.7739 23.8198 81.7204 23.8198C82.3565 23.8198 82.8918 23.6491 83.3262 23.3078C83.7606 22.9509 84.0554 22.4156 84.2106 21.7019H87.2128C86.9335 23.269 86.2896 24.4249 85.2811 25.1696C84.2726 25.9143 83.0624 26.2867 81.6506 26.2867C80.4249 26.2867 79.3698 26.0229 78.4855 25.4954C77.6166 24.9524 76.9417 24.1921 76.4607 23.2147C75.9797 22.2372 75.7393 21.0736 75.7393 19.7237C75.7393 18.3119 75.9797 17.1172 76.4607 16.1397C76.9417 15.1468 77.6244 14.3943 78.5087 13.8823C79.3931 13.3703 80.4326 13.1143 81.6273 13.1143C82.5737 13.1143 83.4348 13.2927 84.2106 13.6495C85.0018 14.0064 85.6535 14.5417 86.1655 15.2554C86.6775 15.9535 86.9956 16.8302 87.1197 17.8852ZM71.4433 18.4437C71.3333 17.7001 71.1123 17.095 70.7806 16.6285C70.2841 15.9148 69.5704 15.5579 68.6395 15.5579C67.6931 15.5579 66.9716 15.9148 66.4751 16.6285C66.1494 17.0967 65.9305 17.7018 65.8185 18.4437H71.4433ZM65.7482 20.3056H74.5508V19.6074C74.5508 18.2576 74.3103 17.1017 73.8293 16.1397C73.3484 15.1778 72.6657 14.4331 71.7813 13.9055C70.8969 13.378 69.8497 13.1143 68.6395 13.1143C67.4448 13.1143 66.3975 13.3703 65.4977 13.8823C64.5978 14.3943 63.8996 15.1468 63.4031 16.1397C62.9221 17.1172 62.6816 18.3119 62.6816 19.7237C62.6816 21.0736 62.9221 22.245 63.4031 23.2379C63.8996 24.2154 64.6055 24.9679 65.5209 25.4954C66.4363 26.0229 67.5146 26.2867 68.7558 26.2867C70.2453 26.2867 71.5098 25.9143 72.5493 25.1696C73.6044 24.4093 74.3025 23.3078 74.6439 21.8648H71.502C71.3159 22.532 70.9823 23.0285 70.5013 23.3543C70.0359 23.6801 69.454 23.843 68.7558 23.843C67.7784 23.843 67.0259 23.4862 66.4984 22.7725C66.0644 22.1675 65.8143 21.3452 65.7482 20.3056ZM47.5059 25.9376V10.1121H49.7866H50.6477H53.2542C54.9144 10.1121 56.3418 10.4301 57.5365 11.0662C58.7466 11.7024 59.6776 12.61 60.3292 13.7892C60.9808 14.9683 61.3066 16.388 61.3066 18.0481C61.3066 19.6927 60.9808 21.1046 60.3292 22.2838C59.6776 23.4629 58.7466 24.3706 57.5365 25.0067C56.3418 25.6273 54.9144 25.9376 53.2542 25.9376H50.6477H49.7866H47.5059ZM50.6477 23.4008V12.6488H53.2542C54.2783 12.6488 55.1471 12.866 55.8608 13.3004C56.59 13.7193 57.1486 14.3322 57.5365 15.139C57.9243 15.9458 58.1183 16.9155 58.1183 18.0481C58.1183 19.1652 57.9243 20.1271 57.5365 20.9339C57.1486 21.7252 56.59 22.3381 55.8608 22.7725C55.1471 23.1914 54.2783 23.4008 53.2542 23.4008H50.6477ZM173.872 9.18115V25.9376H176.851V9.18115H173.872ZM186.396 25.9376V9.18115H189.374V15.1541C189.744 14.5433 190.201 14.0728 190.748 13.7426C191.43 13.3237 192.206 13.1143 193.075 13.1143C193.913 13.1143 194.642 13.2849 195.262 13.6263C195.899 13.9521 196.387 14.4486 196.729 15.1157C197.085 15.7829 197.264 16.6207 197.264 17.6292V25.9376H194.285V18.2343C194.285 17.6602 194.2 17.1793 194.029 16.7914C193.874 16.388 193.633 16.0854 193.308 15.8837C192.982 15.682 192.563 15.5812 192.051 15.5812C191.647 15.5812 191.275 15.6665 190.934 15.8372C190.608 15.9923 190.329 16.2173 190.096 16.5121C189.863 16.7914 189.685 17.1249 189.561 17.5128C189.436 17.8852 189.374 18.2808 189.374 18.6997V25.9376H186.396ZM179.507 22.0511V15.7674H177.901V13.4634H179.507V10.6008H182.486V13.4634H185.116V15.7674H182.486V21.7951C182.486 22.4467 182.618 22.9432 182.882 23.2845C183.146 23.6259 183.689 23.7965 184.511 23.7965H185.069V25.9842C184.914 26.0773 184.674 26.1471 184.348 26.1936C184.022 26.2557 183.658 26.2867 183.254 26.2867C181.982 26.2867 181.035 25.9299 180.415 25.2162C179.81 24.5025 179.507 23.4474 179.507 22.0511ZM163.701 17.5594H160.699C160.839 16.6285 161.141 15.8372 161.607 15.1855C162.088 14.5184 162.716 14.0064 163.492 13.6495C164.283 13.2927 165.206 13.1143 166.261 13.1143C167.41 13.1143 168.371 13.3237 169.147 13.7426C169.938 14.1615 170.528 14.7434 170.916 15.4881C171.304 16.2328 171.498 17.0862 171.498 18.0481V22.8888C171.498 23.6491 171.529 24.2697 171.591 24.7507C171.668 25.2161 171.762 25.6118 171.87 25.9376H168.775C168.651 25.6273 168.573 25.2394 168.542 24.7739C168.531 24.5977 168.521 24.4214 168.514 24.2452C168.314 24.5296 168.09 24.7834 167.844 25.0067C167.363 25.4411 166.828 25.7592 166.238 25.9609C165.649 26.1781 165.059 26.2867 164.469 26.2867C163.647 26.2867 162.918 26.1548 162.282 25.891C161.661 25.6118 161.172 25.2084 160.816 24.6809C160.459 24.1378 160.28 23.4707 160.28 22.6794C160.28 21.8261 160.513 21.0968 160.978 20.4917C161.459 19.8711 162.181 19.3979 163.143 19.0721C164.012 18.7618 164.896 18.5679 165.796 18.4903C166.605 18.408 167.505 18.3621 168.496 18.3525V18.0481C168.496 17.2413 168.294 16.6285 167.89 16.2095C167.503 15.7906 166.898 15.5812 166.075 15.5812C165.362 15.5812 164.811 15.7674 164.423 16.1397C164.035 16.4966 163.794 16.9698 163.701 17.5594ZM168.496 20.1918V20.7245C168.496 21.3451 168.348 21.9114 168.053 22.4234C167.774 22.9354 167.386 23.3388 166.89 23.6336C166.393 23.9284 165.842 24.0758 165.237 24.0758C164.648 24.0758 164.175 23.9361 163.818 23.6569C163.461 23.3776 163.282 22.9975 163.282 22.5165C163.282 22.1907 163.36 21.8881 163.515 21.6088C163.686 21.3296 163.973 21.0813 164.376 20.8641C164.78 20.6469 165.346 20.484 166.075 20.3754C166.719 20.2658 167.526 20.2046 168.496 20.1918ZM155.937 18.4437C155.827 17.7001 155.606 17.095 155.275 16.6285C154.778 15.9148 154.065 15.5579 153.134 15.5579C152.187 15.5579 151.466 15.9148 150.969 16.6285C150.644 17.0967 150.425 17.7018 150.313 18.4437H155.937ZM150.242 20.3056H159.045V19.6074C159.045 18.2576 158.804 17.1017 158.323 16.1397C157.842 15.1778 157.16 14.4331 156.275 13.9055C155.391 13.378 154.344 13.1143 153.134 13.1143C151.939 13.1143 150.892 13.3703 149.992 13.8823C149.092 14.3943 148.394 15.1468 147.897 16.1397C147.416 17.1172 147.176 18.3119 147.176 19.7237C147.176 21.0736 147.416 22.245 147.897 23.2379C148.394 24.2154 149.1 24.9679 150.015 25.4954C150.93 26.0229 152.009 26.2867 153.25 26.2867C154.739 26.2867 156.004 25.9143 157.043 25.1696C158.098 24.4093 158.797 23.3078 159.138 21.8648H155.996C155.81 22.532 155.476 23.0285 154.995 23.3543C154.53 23.6801 153.948 23.843 153.25 23.843C152.273 23.843 151.52 23.4862 150.993 22.7725C150.559 22.1675 150.308 21.3452 150.242 20.3056ZM132 25.9376V10.1121H135.142V16.5354H142.147V10.1121H145.266V25.9376H142.147V19.0954H135.142V25.9376H132Z" fill="#1C1C1C"/>
<mask id="mask0_6019_933" style="mask-type:alpha" maskUnits="userSpaceOnUse" x="0" y="0" width="36" height="36">
<g clip-path="url(#clip0_6019_933)">
<path d="M25.6633 7.5967V11.299C25.6633 11.4484 25.502 11.5415 25.3718 11.4658L13.0492 4.29417C12.9287 4.22431 12.781 4.22431 12.6605 4.29417L1.5797 10.6295C1.40869 10.7265 1.21824 10.5383 1.31541 10.3656L4.2848 5.10525C4.42083 4.8627 4.621 4.6609 4.86197 4.52313L11.8773 0.481306C12.3573 0.205771 12.9481 0.20383 13.4281 0.479365L25.5661 7.42789C25.6263 7.46282 25.6633 7.52685 25.6633 7.5967Z" fill="black"/>
<path d="M27.1542 21.4063L27.1833 7.16187C27.1833 7.02217 27.1095 6.8941 26.989 6.82619L15.9393 0.436492C15.7683 0.337533 15.8363 0.0775208 16.0345 0.0755804L22.0802 -9.47161e-05C22.3581 -0.00397549 22.6321 0.0678188 22.875 0.205586L29.9001 4.23771C30.3801 4.51325 30.6774 5.02357 30.6794 5.57658L30.7493 19.5474C30.7493 19.6172 30.7124 19.6812 30.6521 19.7162L27.4437 21.5751C27.3135 21.6507 27.1522 21.5557 27.1522 21.4082L27.1542 21.4063Z" fill="black"/>
<path d="M36.0001 13.5983L35.9923 21.6878C35.9923 22.2408 35.6969 22.7511 35.2189 23.0286L23.1178 30.0412C23.0576 30.0761 22.9837 30.0761 22.9235 30.0412L19.7112 28.1861C19.581 28.1105 19.5829 27.9242 19.7112 27.8505L32.1018 20.7913C32.2223 20.7234 32.2981 20.5953 32.2981 20.4556L32.3505 7.70536C32.3505 7.50938 32.6109 7.43758 32.712 7.60834L35.7863 12.8066C35.9282 13.0453 36.002 13.3189 36.002 13.5964L36.0001 13.5983Z" fill="black"/>
<path d="M19.7341 35.907L13.6865 36.0001C13.4086 36.004 13.1326 35.9341 12.8916 35.7964L5.85683 31.7837C5.37683 31.5101 5.07756 30.9997 5.07367 30.4487L4.96484 16.4798C4.96484 16.41 5.00177 16.3459 5.06007 16.311L8.26266 14.4444C8.39092 14.3687 8.55416 14.4618 8.55416 14.6112L8.56387 28.8537C8.56387 28.9934 8.63772 29.1214 8.7582 29.1894L19.8274 35.548C19.9984 35.647 19.9304 35.907 19.7341 35.9089V35.907Z" fill="black"/>
<path d="M34.2824 25.485L31.3247 30.7531C31.1886 30.9957 30.9885 31.1975 30.7475 31.3372L23.738 35.3965C23.2599 35.674 22.6691 35.6759 22.1872 35.4023L10.0356 28.479C9.97536 28.4441 9.93844 28.38 9.93844 28.3121L9.93066 24.6079C9.93066 24.4585 10.092 24.3654 10.2222 24.4391L22.5603 31.5856C22.6808 31.6554 22.8285 31.6554 22.949 31.5856L34.0142 25.223C34.1852 25.1241 34.3757 25.3142 34.2805 25.485H34.2824Z" fill="black"/>
<path d="M3.70401 15.5658L3.7487 28.3161C3.7487 28.5121 3.49024 28.5858 3.38919 28.417L0.277933 23.2401C0.134127 23.0014 0.058338 22.7297 0.0563947 22.4523L3.83866e-05 14.3609C-0.00384825 13.8078 0.28765 13.2956 0.763763 13.0142L12.8104 5.91047C12.8706 5.87555 12.9445 5.87555 13.0047 5.91047L16.2306 7.74026C16.3608 7.81399 16.3608 8.00027 16.2306 8.07594L3.8964 15.2321C3.77591 15.3019 3.70206 15.43 3.70206 15.5697L3.70401 15.5658Z" fill="black"/>
</g>
</mask>
<g mask="url(#mask0_6019_933)">
<rect width="36" height="36" fill="url(#paint0_linear_6019_933)"/>
</g>
<defs>
<linearGradient id="paint0_linear_6019_933" x1="18" y1="0" x2="18" y2="36" gradientUnits="userSpaceOnUse">
<stop offset="0.284334" stop-color="#009AFF"/>
<stop offset="1" stop-color="#AB50FF"/>
</linearGradient>
<clipPath id="clip0_6019_933">
<rect width="36" height="36" fill="white"/>
</clipPath>
</defs>
</svg>
